# AST/ASF file generated using VICON BodyLanguage
# -----------------------------------------------
:version 1.10
:name VICON
:units
  mass 1.0
  length 0.45
  angle deg
:documentation
   .ast/.asf automatically generated from VICON data using
   VICON BodyBuilder and BodyLanguage model FoxedUp or BRILLIANT.MOD
:root
   order TX TY TZ RX RY RZ
   axis XYZ
   position 0 0 0  
   orientation 0 0 0 
:bonedata
  begin
     id 1 
     name lhipjoint
     direction 0.576517 -0.752066 0.319413 
     length 2.45433 
     axis 0 0 0  XYZ
  end
  begin
     id 2 
     name lfemur
     direction 0.34202 -0.939693 0  
     length 7.54459  
     axis 0 0 20  XYZ
    dof rx ry rz
    limits (-160.0 20.0)
           (-70.0 70.0)
           (-60.0 70.0)
  end
  begin
     id 3 
     name ltibia
     direction 0.34202 -0.939693 0   
     length 7.73986   
     axis 0 0 20   XYZ
    dof rx
    limits (-10.0 170.0)
  end
  begin
     id 4 
     name lfoot
     direction 0.090693 -0.249177 0.964202   
     length 2.28437   
     axis -90 7.62852e-016 20   XYZ
    dof rx rz
    limits (-45.0 90.0)
           (-70.0 20.0)
  end
  begin
     id 5 
     name ltoes
     direction 1.5356e-011 -4.21928e-011 1   
     length 1.14243   
     axis -90 7.62852e-016 20   XYZ
    dof rx
    limits (-90.0 20.0)
  end
  begin
     id 6 
     name rhipjoint
     direction -0.573937 -0.753736 0.320122   
     length 2.44889  
     axis 0 0 0  XYZ 
  end
  begin
     id 7 
     name rfemur
     direction -0.34202 -0.939693 0   
     length 7.50166   
     axis 0 0 -20   XYZ
    dof rx ry rz
    limits (-160.0 20.0)
           (-70.0 70.0)
           (-70.0 60.0)
  end
  begin
     id 8 
     name rtibia
     direction -0.34202 -0.939693 0   
     length 7.54266   
     axis 0 0 -20   XYZ
    dof rx
    limits (-10.0 170.0)
 end
 begin
     id 9 
     name rfoot
     direction -0.114017 -0.31326 0.942798   
     length 2.34212  
     axis -90 -7.62852e-016 -20   XYZ
    dof rx rz
    limits (-45.0 90.0)
           (-20.0 70.0)
  end
  begin
     id 10 
     name rtoes
     direction -1.53557e-011 -4.21867e-011 1   
     length 1.16246   
     axis -90 -7.62852e-016 -20   XYZ
    dof rx
    limits (-90.0 20.0)
  end
  begin
     id 11 
     name lowerback
     direction -0.0228371 0.999155 -0.034167   
     length 2.0537   
     axis 0 0 0   XYZ
    dof rx ry rz
    limits (-20.0 45.0)
           (-30.0 30.0)
           (-30.0 30.0)
  end
  begin
     id 12 
     name upperback
     direction 0.0198981 0.999794 0.00389455   
     length 2.05302   
     axis 0 0 0   XYZ
    dof rx ry rz
    limits (-20.0 45.0)
           (-30.0 30.0)
           (-30.0 30.0)
  end
  begin
     id 13 
     name thorax
     direction 0.0304566 0.99935 0.0192987   
     length 2.05315   
     axis 0 0 0   XYZ
    dof rx ry rz
    limits (-20.0 45.0)
           (-30.0 30.0)
           (-30.0 30.0)
  end
  begin
     id 14 
     name lowerneck
     direction -0.0196762 0.99417 0.106017   
     length 1.82056   
     axis 0 0 0   XYZ
    dof rx ry rz
    limits (-20.0 45.0)
           (-30.0 30.0)
           (-30.0 30.0)
  end
  begin
     id 15 
     name upperneck
     direction 0.00517787 0.9802 -0.197944   
     length 1.83835   
     axis 0 0 0   XYZ
    dof rx ry rz
    limits (-20.0 45.0)
           (-30.0 30.0)
           (-30.0 30.0)
  end
  begin
     id 16
     name head
     direction 0.00211419 0.996945 -0.078081  
     length 1.85629  
     axis 0 0 0   XYZ
    dof rx ry rz
    limits (-20.0 45.0)
           (-30.0 30.0)
           (-30.0 30.0)
  end
  begin
     id 17 
     name lclavicle
     direction 0.930001 0.365811 -0.0357824  
     length 3.81961  
     axis 0 0 0   XYZ
    dof ry rz
    limits (-20.0 10.0)
           (0.0 20.0)
  end
  begin
     id 18 
     name lhumerus
     direction 1 -4.48968e-011 -3.06644e-027   
     length 5.14507   
     axis 180 -30 -90   XYZ
    dof rx ry rz
    limits (-60.0 90.0)
           (-90.0 90.0)
           (-90.0 90.0)
  end
  begin
     id 19
     name lradius
     direction 1 -4.48965e-011 9.06925e-028   
     length 3.50646   
     axis 180 -30 -90   XYZ
    dof rx
    limits (-10.0 170.0)
  end
  begin
     id 20
     name lwrist
     direction 1 -4.48957e-011 1.03922e-027   
     length 1.75323   
     axis -2.56395e-016 90 90   XYZ
    dof ry
    limits (-180.0 0.0)
 end
  begin
     id 21 
     name lhand
     direction 1 -4.48967e-011 2.08017e-027   
     length 0.629969   
     axis -1.32723e-015 90 90   XYZ
    dof rx rz
    limits (-90.0 90.0)
           (-45.0 45.0)
  end
  begin
     id 22 
     name lfingers
     direction 1 -4.49089e-011 4.20095e-027   
     length 0.507897   
     axis -2.6545e-015 90 90   XYZ
    dof rx
    limits (0.0 90.0)
  end
  begin
     id 23
     name lthumb
     direction 0.707107 -6.35001e-011 0.707107   
     length 0.729241   
     axis -90 45 5.05613e-014   XYZ
    dof rx rz
    limits (-45.0 45.0)
           (-45.0 45.0)
  end
  begin
     id 24 
     name rclavicle
     direction -0.881882 0.464123 -0.0829113   
     length 3.47515  
     axis 0 0 0   XYZ 
    dof ry rz
    limits (-10.0 20.0)
           (-20.0 0.0)
  end
  begin
     id 25 
     name rhumerus
     direction -1 -4.48961e-011 -1.55672e-027  
     length 5.232   
     axis 180 30 90   XYZ
    dof rx ry rz
    limits (-90.0 60.0)
           (-90.0 90.0)
           (-90.0 90.0)
  end
  begin
     id 26 
     name rradius
     direction -1 -4.48963e-011 6.18178e-029   
     length 3.65641   
     axis 180 30 90   XYZ
    dof rx
    limits (-10.0 170.0)
  end
  begin
     id 27 
     name rwrist
     direction -1 -4.48982e-011 1.04136e-027   
     length 1.8282   
     axis -2.56395e-016 -90 -90   XYZ
    dof ry
    limits (-180.0 0.0)
  end
  begin
     id 28
     name rhand
     direction -1 -4.48929e-011 2.07378e-027   
     length 0.656807   
     axis -1.32723e-015 -90 -90   XYZ
    dof rx rz
    limits (-90.0 90.0)
           (-45.0 45.0)
  end
  begin
     id 29
     name rfingers
     direction -1 -4.489e-011 4.13816e-027   
     length 0.529535   
     axis -2.6545e-015 -90 -90   XYZ
    dof rx
    limits (0.0 90.0)
  end
  begin
     id 30
     name rthumb
     direction -0.707107 -6.34843e-011 0.707107   
     length 0.760309   
     axis -90 -45 -5.05613e-014   XYZ
    dof rx rz
    limits (-45.0 45.0)
           (-45.0 45.0)
  end
:hierarchy
  begin
    root lhipjoint rhipjoint lowerback
    lhipjoint lfemur
    lfemur ltibia
    ltibia lfoot
    lfoot ltoes
    rhipjoint rfemur
    rfemur rtibia
    rtibia rfoot
    rfoot rtoes
    lowerback upperback
    upperback thorax
    thorax lowerneck lclavicle rclavicle
    lowerneck upperneck
    upperneck head
    lclavicle lhumerus
    lhumerus lradius
    lradius lwrist
    lwrist lhand lthumb
    lhand lfingers
    rclavicle rhumerus
    rhumerus rradius
    rradius rwrist
    rwrist rhand rthumb
    rhand rfingers
  end

#!OML:ASF H:\ManfredETheater\Project 1\Capture day 1\Session 1\subject.ASF
:FULLY-SPECIFIED
:DEGREES
16
root 1.70902 15.857 -41.2277 30.704 -2.66753 4.92814
lowerback 20.064 1.21935 -3.78921
upperback 0.833553 0.481186 -2.36738
thorax -10.38 0.342298 -0.580529
lowerneck -17.0351 -3.17196 -3.19481
upperneck -5.17345 -3.65792 2.39281
head 1.33552 -1.72685 1.08786
rclavicle 1.98785e-015 9.14409e-015
rhumerus -41.5954 6.68029 -93.8359
rradius 77.4519
rwrist -10.5055
rhand -24.7726 -0.808374
rfingers 7.12502
rthumb 1.73123 -30.7811
lclavicle 1.98785e-015 9.14409e-015
lhumerus -46.9341 -6.59414 95.1172
lradius 89.7305
lwrist 11.8905
lhand -24.6512 -17.8454
lfingers 7.12502
lthumb 1.84841 12.1263
rfemur -31.8852 -8.79298 16.1619
rtibia 80.0191
rfoot -6.94354 -15.7484
rtoes -26.5209
lfemur -56.8005 -1.49269 -28.5819
ltibia 72.1636
lfoot -35.5143 -0.994615
ltoes -9.26184
17
root 1.69512 15.842 -40.8858 30.5121 -2.40523 5.34332
lowerback 20.1432 0.936353 -4.06527
upperback 0.846463 0.0426803 -2.3814
thorax -10.4017 0.150263 -0.314453
lowerneck -17.0124 -3.08017 -3.15089
upperneck -5.17242 -3.54733 2.55417
head 1.33259 -1.66815 1.13994
rclavicle -3.67752e-015 -1.67973e-014
rhumerus -43.2088 5.56086 -93.503
rradius 75.8672
rwrist -11.4833
rhand -25.438 -0.753951
rfingers 7.12502
rthumb 1.08853 -30.7309
lclavicle -3.67752e-015 -1.67973e-014
lhumerus -44.969 -7.57507 95.7493
lradius 90.4846
lwrist 11.6547
lhand -24.8514 -17.9384
lfingers 7.12502
lthumb 1.65505 12.035
rfemur -35.3992 -9.44495 15.9183
rtibia 83.3076
rfoot -8.87527 -16.3291
rtoes -26.4679
lfemur -54.9251 -1.68598 -28.8185
ltibia 71.7999
lfoot -35.9876 -1.41174
ltoes -9.7246
18
root 1.67995 15.8229 -40.5402 30.3096 -2.10733 5.6978
lowerback 20.1773 0.643864 -4.28068
upperback 0.852933 -0.388288 -2.36024
thorax -10.401 -0.0402403 -0.0453678
lowerneck -17.0147 -2.98849 -3.12596
upperneck -5.12648 -3.43299 2.6964
head 1.34873 -1.60767 1.1891
rclavicle 6.4605e-015 1.81888e-014
rhumerus -45.0308 4.59431 -93.077
rradius 74.7009
rwrist -12.1909
rhand -26.1647 -0.473424
rfingers 7.12502
rthumb 0.386672 -30.4528
lclavicle 6.4605e-015 1.81888e-014
lhumerus -43.1193 -8.57097 96.3647
lradius 91.6723
lwrist 11.4368
lhand -25.0535 -17.9817
lfingers 7.12502
lthumb 1.45992 11.993
rfemur -38.9747 -10.0647 15.7913
rtibia 86.2602
rfoot -10.6722 -16.7478
rtoes -26.4798
lfemur -53.0146 -1.83344 -28.9683
ltibia 71.4131
lfoot -36.4297 -1.90999
ltoes -10.1718
19
root 1.66372 15.8013 -40.1886 30.0949 -1.79248 5.9896
lowerback 20.163 0.348742 -4.44582
upperback 0.849018 -0.80481 -2.30329
thorax -10.3813 -0.225633 0.230402
lowerneck -17.0371 -2.89278 -3.11134
upperneck -5.03196 -3.31116 2.80018
head 1.38351 -1.54413 1.22794
rclavicle 8.97016e-015 1.33931e-014
rhumerus -47.0855 3.80819 -92.5815
rradius 74.028
rwrist -12.5274
rhand -26.9104 0.0142941
rfingers 7.12502
rthumb -0.333536 -29.9652
lclavicle 8.97016e-015 1.33931e-014
lhumerus -41.4059 -9.54784 96.9768
lradius 93.3209
lwrist 11.3304
lhand -25.1712 -18.0208
lfingers 7.12502
lthumb 1.34624 11.9547
rfemur -42.5988 -10.6286 15.7779
rtibia 88.8378
rfoot -12.3142 -17.0084
rtoes -26.6201
lfemur -51.0453 -1.92744 -29.0422
ltibia 70.9667
lfoot -36.8391 -2.4231
ltoes -10.7331
20
root 1.64677 15.7784 -39.8296 29.8711 -1.47567 6.21758
lowerback 20.0967 0.0549095 -4.57068
upperback 0.830229 -1.20365 -2.20735
thorax -10.346 -0.403936 0.520206
lowerneck -17.0767 -2.78623 -3.10154
upperneck -4.88654 -3.17379 2.84945
head 1.43654 -1.47404 1.25089
rclavicle 4.74598e-015 -7.50412e-015
rhumerus -49.38 3.22259 -92.0384
rradius 73.8955
rwrist -12.4862
rhand -27.6054 0.727132
rfingers 7.12502
rthumb -1.00482 -29.2502
lclavicle 4.74598e-015 -7.50412e-015
lhumerus -39.8369 -10.4886 97.6059
lradius 95.431
lwrist 11.3631
lhand -25.2134 -18.0633
lfingers 7.12502
lthumb 1.30543 11.9125
rfemur -46.2541 -11.1116 15.8709
rtibia 91.0013
rfoot -13.7619 -17.1152
rtoes -26.9242
lfemur -48.9942 -1.97065 -29.0449
ltibia 70.4156
lfoot -37.2065 -2.90073
ltoes -11.4651
21
root 1.62985 15.757 -39.4606 29.6463 -1.18384 6.37464
lowerback 19.9592 -0.232669 -4.65838
upperback 0.793419 -1.57843 -2.07559
thorax -10.2883 -0.572426 0.819457
lowerneck -17.1251 -2.66125 -3.08605
upperneck -4.69614 -3.01264 2.83611
head 1.50385 -1.39378 1.25412
rclavicle -4.32357e-015 -2.66123e-014
rhumerus -51.901 2.8396 -91.473
rradius 74.3161
rwrist -12.1323
rhand -28.1613 1.59318
rfingers 7.12502
rthumb -1.54168 -28.381
lclavicle -4.32357e-015 -2.66123e-014
lhumerus -38.404 -11.3908 98.256
lradius 97.9635
lwrist 11.5654
lhand -25.1759 -18.1544
lfingers 7.12502
lthumb 1.34172 11.8211
rfemur -49.914 -11.4797 16.0583
rtibia 92.7029
rfoot -14.9966 -17.0868
rtoes -27.3598
lfemur -46.8363 -1.95806 -28.9792
ltibia 69.7091
lfoot -37.5211 -3.33169
ltoes -12.346
22
root 1.61336 15.7412 -39.0802 29.4358 -0.914907 6.47356
lowerback 19.7495 -0.522169 -4.71144
upperback 0.72964 -1.94132 -1.90959
thorax -10.2174 -0.736617 1.13016
lowerneck -17.1788 -2.50806 -3.0586
upperneck -4.46253 -2.81559 2.75618
head 1.58396 -1.29762 1.23611
rclavicle -1.54555e-014 -1.66482e-014
rhumerus -54.6191 2.65741 -90.9092
rradius 75.2624
rwrist -11.6226
rhand -28.5597 2.58177
rfingers 7.12502
rthumb -1.92647 -27.3893
lclavicle -1.54555e-014 -1.66482e-014
lhumerus -37.0988 -12.2637 98.925
lradius 100.85
lwrist 11.8881
lhand -25.1197 -18.2457
lfingers 7.12502
lthumb 1.39596 11.7295
rfemur -53.5492 -11.7387 16.3205
rtibia 93.8961
rfoot -16.0123 -16.9054
rtoes -27.8831
lfemur -44.5683 -1.9217 -28.8559
ltibia 68.7915
lfoot -37.7386 -3.6939
ltoes -13.4086
23
root 1.59797 15.735 -38.6861 29.2359 -0.68925 6.50661
lowerback 19.4663 -0.810111 -4.72565
upperback 0.639406 -2.28761 -1.71307
thorax -10.1324 -0.894772 1.44348
lowerneck -17.2234 -2.32147 -3.01051
upperneck -4.19572 -2.57725 2.60845
head 1.67103 -1.1833 1.19546
rclavicle 2.88735e-014 3.06128e-014
rhumerus -57.4912 2.6631 -90.3705
rradius 76.6837
rwrist -11.1293
rhand -28.8178 3.49477
rfingers 7.12502
rthumb -2.17576 -26.4739
lclavicle 2.88735e-014 3.06128e-014
lhumerus -35.904 -13.1222 99.589
lradius 104
lwrist 12.2815
lhand -25.052 -18.3442
lfingers 7.12502
lthumb 1.46133 11.6305
rfemur -57.089 -11.8636 16.6407
rtibia 94.5346
rfoot -16.825 -16.5913
rtoes -28.5212
lfemur -42.1669 -1.85775 -28.6801
ltibia 67.6197
lfoot -37.826 -3.95882
ltoes -14.7345
24
root 1.58373 15.7401 -38.2775 29.0306 -0.513051 6.47626
lowerback 19.1332 -1.09684 -4.69897
upperback 0.526709 -2.61977 -1.49133
thorax -10.0425 -1.04813 1.75286
lowerneck -17.2572 -2.09629 -2.93515
upperneck -3.89735 -2.29155 2.3962
head 1.76459 -1.04795 1.13253
rclavicle 4.96962e-016 -1.19271e-015
rhumerus -60.4572 2.8176 -89.8522
rradius 78.4604
rwrist -10.7404
rhand -28.8917 4.38783
rfingers 7.12502
rthumb -2.24712 -25.5801
lclavicle 4.96962e-016 -1.19271e-015
lhumerus -34.8037 -13.9908 100.222
lradius 107.313
lwrist 12.7222
lhand -25.0357 -18.4611
lfingers 7.12502
lthumb 1.47705 11.5135
rfemur -60.462 -11.8506 16.9981
rtibia 94.597
rfoot -17.4352 -16.1725
rtoes -29.2795
lfemur -39.6037 -1.79382 -28.4468
ltibia 66.1692
lfoot -37.7392 -4.19715
ltoes -16.157
